<svg width="22" height="20" viewBox="0 0 22 20" fill="none" xmlns="http://www.w3.org/2000/svg"><g clip-path="url(#clip0_173_3294)"><path d="M10.6246 19.9768L0.492188 14.4349V6.69531L10.6246 12.1708V19.9768Z" fill="#F5F7F8"></path><path d="M10.6259 19.9999C10.6215 19.9999 10.6172 19.9988 10.6134 19.9968L0.481056 14.4548C0.477314 14.4528 0.474209 14.4498 0.47205 14.4463C0.469891 14.4428 0.468753 14.4388 0.46875 14.4348V6.69517C0.468735 6.69108 0.469872 6.68706 0.472046 6.68351C0.47422 6.67997 0.477354 6.67703 0.48113 6.67498C0.484907 6.67294 0.489193 6.67187 0.493553 6.67188C0.497914 6.67188 0.502196 6.67297 0.505965 6.67502L10.6383 12.1505C10.6421 12.1525 10.6452 12.1555 10.6474 12.159C10.6496 12.1625 10.6507 12.1665 10.6507 12.1706V19.9767C10.6507 19.9829 10.6481 19.9888 10.6435 19.9931C10.6388 19.9975 10.6325 19.9999 10.6259 19.9999ZM0.518345 14.4214L10.6011 19.9362V12.1841L0.518345 6.7354V14.4214Z" fill="black"></path><path d="M20.8324 14.5635L10.625 19.9776V12.1716L20.8324 6.58203V14.5635Z" fill="black"></path><path d="M10.6244 20.0007C10.6178 20.0007 10.6115 19.9983 10.6069 19.9939C10.6022 19.9896 10.5996 19.9836 10.5996 19.9775V12.1714C10.5996 12.1632 10.6043 12.1555 10.6119 12.1514L20.8193 6.56182C20.823 6.55973 20.8273 6.55862 20.8317 6.55859C20.8361 6.55857 20.8404 6.55963 20.8442 6.56167C20.848 6.56371 20.8511 6.56666 20.8533 6.57021C20.8555 6.57376 20.8566 6.57779 20.8566 6.58189V14.5634C20.8566 14.5675 20.8554 14.5716 20.8532 14.5751C20.851 14.5787 20.8478 14.5816 20.844 14.5837L10.6366 19.9977C10.6329 19.9997 10.6287 20.0007 10.6244 20.0007ZM10.6492 12.1848V19.9376L20.807 14.5499V6.62242L10.6492 12.1848Z" fill="black"></path><path d="M10.6256 11.6208V14.928L0.0253906 9.10711V5.89453L10.6256 11.6208Z" fill="#F5F7F8"></path><path d="M10.625 14.9511C10.6206 14.9511 10.6163 14.95 10.6125 14.948L0.012281 9.12704C0.00854353 9.12499 0.00544347 9.12206 0.00328899 9.11854C0.00113452 9.11501 6.6471e-07 9.11103 1.47912e-07 9.10697V5.89438C-1.49235e-05 5.8903 0.00112202 5.88628 0.00329596 5.88273C0.0054699 5.87919 0.00860371 5.87625 0.0123804 5.8742C0.016157 5.87216 0.0204426 5.87109 0.0248035 5.87109C0.0291644 5.8711 0.0334459 5.87219 0.0372149 5.87424L10.6374 11.6005C10.6411 11.6025 10.6443 11.6054 10.6465 11.609C10.6486 11.6125 10.6498 11.6165 10.6498 11.6206V14.9279C10.6498 14.9309 10.6492 14.9339 10.6479 14.9368C10.6467 14.9396 10.6448 14.9422 10.6425 14.9443C10.6402 14.9465 10.6375 14.9482 10.6345 14.9494C10.6315 14.9505 10.6282 14.9511 10.625 14.9511ZM0.0496198 9.09362L10.6002 14.8873V11.6341L0.0496198 5.93462V9.09362Z" fill="black"></path><path d="M21.2252 5.91602V9.25693L10.625 14.873V11.6215L21.2252 5.91602Z" fill="black"></path><path d="M10.6244 14.8961C10.6178 14.8961 10.6115 14.8936 10.6069 14.8893C10.6022 14.8849 10.5996 14.879 10.5996 14.8728V11.6213C10.5996 11.6172 10.6008 11.6132 10.6029 11.6097C10.6051 11.6061 10.6083 11.6032 10.6121 11.6012L21.2123 5.89567C21.216 5.89364 21.2203 5.89257 21.2247 5.89258C21.229 5.89259 21.2333 5.89366 21.2371 5.89571C21.2408 5.89775 21.2439 5.90068 21.2461 5.90422C21.2483 5.90775 21.2494 5.91175 21.2494 5.91583V9.25675C21.2494 9.26512 21.2446 9.27286 21.2368 9.27698L10.6366 14.8931C10.6329 14.895 10.6287 14.8961 10.6244 14.8961ZM10.6492 11.6348V14.833L21.1998 9.24316V5.956L10.6492 11.6348Z" fill="black"></path><path d="M0.0253906 5.89256L10.6256 11.6218L21.2258 5.90802L10.5929 0.0800781L0.0253906 5.89256Z" fill="#F5F7F8"></path><path d="M10.625 11.6449C10.6208 11.6449 10.6165 11.6439 10.6126 11.6418L0.0124671 5.91251C0.00869257 5.91049 0.00555287 5.90757 0.00336421 5.90405C0.00117555 5.90053 1.52422e-05 5.89653 1.4915e-07 5.89245C-1.49439e-05 5.88838 0.00111572 5.88437 0.00327824 5.88084C0.00544076 5.8773 0.00855878 5.87437 0.0123182 5.87232L10.5798 0.0598425C10.5836 0.0577499 10.5879 0.0566447 10.5923 0.0566406C10.5967 0.0566365 10.6011 0.0577337 10.6049 0.0598193L21.2378 5.88776C21.2415 5.88982 21.2446 5.89277 21.2468 5.89631C21.2489 5.89984 21.2501 5.90385 21.25 5.90792C21.25 5.91199 21.2489 5.91599 21.2467 5.91951C21.2445 5.92303 21.2414 5.92596 21.2376 5.928L10.6374 11.6418C10.6337 11.6438 10.6294 11.6449 10.625 11.6449ZM0.0742188 5.89218L10.6251 11.5948L21.1758 5.90767L10.5924 0.106845L0.0742188 5.89218Z" fill="black"></path><path d="M6.80326 12.8446V17.8861L4.96875 16.8827L4.97957 11.8281L6.80326 12.8446Z" fill="#FCD535"></path><path d="M6.80266 17.9092C6.79826 17.9092 6.79395 17.9081 6.79015 17.906L4.95567 16.9026C4.95191 16.9005 4.9488 16.8976 4.94664 16.8941C4.94448 16.8905 4.94335 16.8865 4.94336 16.8825L4.9542 11.8279C4.95423 11.8195 4.95901 11.8118 4.96675 11.8077C4.97057 11.8057 4.97488 11.8046 4.97926 11.8047C4.98364 11.8047 4.98792 11.8059 4.99169 11.808L6.81536 12.8244C6.81906 12.8264 6.82212 12.8294 6.82424 12.8329C6.82637 12.8364 6.82749 12.8403 6.82749 12.8444V17.8859C6.8275 17.8889 6.82686 17.892 6.82561 17.8948C6.82436 17.8976 6.82253 17.9002 6.82023 17.9024C6.81792 17.9045 6.81518 17.9062 6.81217 17.9074C6.80915 17.9086 6.80592 17.9092 6.80266 17.9092ZM4.993 16.8692L6.77785 17.8454V12.8576L5.00372 11.8688L4.993 16.8692Z" fill="black"></path><path d="M4.57617 11.6068V8.35352L6.39987 9.34415V12.6199L4.57617 11.6068Z" fill="#FCD535"></path><path d="M6.40124 12.6449C6.39679 12.6449 6.39242 12.6438 6.38859 12.6417L4.56489 11.6286C4.56119 11.6265 4.55812 11.6236 4.55599 11.6201C4.55386 11.6166 4.55274 11.6126 4.55273 11.6086V8.35529C4.55273 8.3512 4.55388 8.34719 4.55606 8.34365C4.55825 8.34011 4.56138 8.33717 4.56516 8.33513C4.56894 8.33309 4.57323 8.33202 4.57759 8.33203C4.58195 8.33204 4.58623 8.33312 4.59 8.33517L6.4137 9.32581C6.41746 9.32786 6.42058 9.33079 6.42276 9.33432C6.42493 9.33785 6.42607 9.34185 6.42608 9.34593V12.6217C6.42607 12.6278 6.42345 12.6338 6.41879 12.6381C6.41414 12.6425 6.40782 12.6449 6.40124 12.6449ZM4.60235 11.5953L6.37643 12.5809V9.35933L4.60235 8.39564V11.5953Z" fill="black"></path><path d="M16.4801 11.7695V16.8699L14.6623 17.8342L14.6562 12.7358L16.4801 11.7695Z" fill="#FCD535"></path><path d="M14.6616 17.8572C14.6551 17.8572 14.6488 17.8548 14.6441 17.8504C14.6395 17.8461 14.6369 17.8402 14.6368 17.834L14.6309 12.7357C14.6309 12.7316 14.632 12.7275 14.6342 12.7239C14.6365 12.7204 14.6396 12.7174 14.6435 12.7154L16.4673 11.7491C16.4711 11.7471 16.4753 11.7461 16.4797 11.7461C16.484 11.7461 16.4883 11.7472 16.492 11.7493C16.4958 11.7513 16.4989 11.7542 16.501 11.7578C16.5032 11.7613 16.5043 11.7653 16.5043 11.7693V16.8698C16.5043 16.8739 16.5032 16.8779 16.5009 16.8815C16.4987 16.885 16.4955 16.888 16.4917 16.89L14.6739 17.8542C14.6701 17.8562 14.6659 17.8573 14.6616 17.8572ZM14.6805 12.7492L14.6864 17.7941L16.4547 16.8562V11.8092L14.6805 12.7492Z" fill="black"></path><path d="M14.8516 12.634V9.34683L16.6753 8.36523V11.6678L14.8516 12.634Z" fill="#FCD535"></path><path d="M14.851 12.6571C14.8444 12.6571 14.8381 12.6546 14.8334 12.6503C14.8288 12.6459 14.8262 12.64 14.8262 12.6338V9.34664C14.8262 9.34255 14.8273 9.33853 14.8295 9.33499C14.8317 9.33145 14.8348 9.32851 14.8386 9.32648L16.6623 8.34489C16.6661 8.34286 16.6704 8.34179 16.6747 8.3418C16.6791 8.3418 16.6833 8.34288 16.6871 8.34492C16.6909 8.34697 16.694 8.3499 16.6962 8.35343C16.6983 8.35697 16.6995 8.36097 16.6995 8.36505V11.6676C16.6995 11.676 16.6947 11.6837 16.6869 11.6878L14.8632 12.654C14.8595 12.656 14.8553 12.6571 14.851 12.6571ZM14.8758 9.36011V12.5939L16.6499 11.654V8.40524L14.8758 9.36011Z" fill="black"></path><path d="M10.6361 14.9197C10.6306 14.9197 10.6253 14.918 10.621 14.9148C10.6167 14.9117 10.6136 14.9073 10.6122 14.9024C10.6108 14.8974 10.6111 14.8922 10.6132 14.8875C10.6153 14.8827 10.619 14.8788 10.6238 14.8762L14.8393 12.6135C14.845 12.6104 14.8518 12.6096 14.8581 12.6112C14.8645 12.6129 14.8699 12.6168 14.8732 12.6221C14.8764 12.6274 14.8773 12.6338 14.8756 12.6397C14.8738 12.6457 14.8697 12.6508 14.864 12.6538L10.6484 14.9166C10.6447 14.9186 10.6404 14.9197 10.6361 14.9197ZM16.6671 11.6805C16.6616 11.6805 16.6562 11.6788 16.6519 11.6756C16.6476 11.6725 16.6445 11.668 16.6431 11.6631C16.6417 11.6581 16.6421 11.6528 16.6443 11.6481C16.6465 11.6433 16.6503 11.6394 16.6551 11.6369L20.8654 9.45992C20.8683 9.45845 20.8714 9.45751 20.8747 9.45717C20.8779 9.45684 20.8812 9.4571 20.8843 9.45795C20.8875 9.4588 20.8904 9.46021 20.8929 9.46212C20.8955 9.46403 20.8976 9.46639 20.8992 9.46906C20.9007 9.47174 20.9017 9.47468 20.9021 9.47771C20.9025 9.48075 20.9022 9.48382 20.9013 9.48676C20.9004 9.48969 20.8989 9.49243 20.8968 9.49482C20.8948 9.49721 20.8923 9.49919 20.8894 9.50067L16.679 11.6776C16.6754 11.6795 16.6713 11.6805 16.6671 11.6805Z" fill="#F5F7F8"></path><path d="M6.39987 9.34663L16.9308 3.55425L15.1535 2.58008L4.57617 8.35423L6.39987 9.34663Z" fill="#FCD535"></path><path d="M6.40121 9.36972C6.39684 9.36972 6.39254 9.36864 6.38876 9.36658L4.56506 8.37417C4.56131 8.37213 4.5582 8.36919 4.55604 8.36567C4.55388 8.36214 4.55274 8.35814 4.55273 8.35408C4.55273 8.35001 4.55387 8.34601 4.55603 8.34248C4.55818 8.33895 4.56129 8.33602 4.56504 8.33396L15.1423 2.55981C15.1461 2.55773 15.1504 2.55664 15.1548 2.55664C15.1592 2.55664 15.1635 2.55775 15.1673 2.55984L16.9447 3.53403C16.9484 3.53608 16.9515 3.53901 16.9537 3.54253C16.9558 3.54605 16.957 3.55003 16.957 3.55409C16.957 3.55814 16.9558 3.56213 16.9537 3.56565C16.9515 3.56917 16.9485 3.5721 16.9447 3.57415L6.41377 9.36651C6.40996 9.36861 6.40563 9.36972 6.40121 9.36972ZM4.62686 8.35403L6.40114 9.31953L16.8831 3.55413L15.1548 2.60684L4.62686 8.35403Z" fill="black"></path><path d="M4.32422 3.52802L14.8517 9.3471L16.6754 8.36551L10.3815 4.94833L6.03042 2.58594L4.32422 3.52802Z" fill="#FCD535"></path><path d="M14.8511 9.37018C14.8466 9.37018 14.8423 9.36907 14.8385 9.36695L4.31102 3.54787C4.30731 3.54581 4.30423 3.54288 4.30209 3.53937C4.29995 3.53586 4.29883 3.53188 4.29883 3.52784C4.29883 3.5238 4.29995 3.51982 4.30209 3.51631C4.30423 3.5128 4.30731 3.50987 4.31102 3.50782L6.01724 2.56574C6.02103 2.56363 6.02534 2.56252 6.02974 2.5625C6.03415 2.56248 6.03847 2.56357 6.04228 2.56565L16.6872 8.34521C16.691 8.34726 16.6941 8.3502 16.6963 8.35374C16.6985 8.35728 16.6996 8.36129 16.6996 8.36537C16.6996 8.36946 16.6984 8.37347 16.6963 8.377C16.6941 8.38053 16.6909 8.38346 16.6872 8.3855L14.8635 9.36709C14.8597 9.36912 14.8554 9.37018 14.8511 9.37018ZM4.37247 3.52784L14.8513 9.32001L16.6251 8.36524L6.02994 2.61269L4.37247 3.52784Z" fill="black"></path><path d="M10.444 6.99673C10.444 6.99673 9.87289 6.79523 8.53772 7.39734C7.82288 7.7197 6.22907 9.16793 6.22907 9.16793L6.02148 7.55514L9.22039 6.00195L10.444 6.99673Z" fill="black"></path><path d="M6.23045 9.19101C6.22438 9.19101 6.21853 9.18893 6.21399 9.18516C6.20945 9.18139 6.20654 9.17619 6.20581 9.17054L5.99823 7.55775C5.99762 7.55305 5.99856 7.54828 6.00092 7.54409C6.00329 7.5399 6.00696 7.53649 6.01145 7.53431L9.21036 5.98112C9.21477 5.97898 9.21976 5.97813 9.22469 5.97868C9.22962 5.97922 9.23427 5.98115 9.23802 5.98419L10.4616 6.97895C10.4661 6.98252 10.469 6.98743 10.4699 6.99283C10.4709 6.99823 10.4698 7.00377 10.4668 7.00847C10.4638 7.01317 10.4591 7.01674 10.4536 7.01854C10.4481 7.02034 10.4421 7.02027 10.4367 7.01832C10.4284 7.01546 9.85335 6.83027 8.54984 7.41812C7.84676 7.73516 6.26362 9.16998 6.24771 9.18443C6.24309 9.18865 6.2369 9.19101 6.23045 9.19101ZM6.04956 7.56822L6.24913 9.11868C6.49021 8.90225 7.87782 7.66955 8.52833 7.37621C9.5607 6.91064 10.1368 6.92099 10.3537 6.95286L9.2182 6.02971L6.04956 7.56822Z" fill="black"></path><path d="M7.58165 7.56536C5.93137 10.2226 3.9675 10.8664 3.95939 10.8298L1.62305 7.93624C1.62305 7.93624 2.99302 8.28138 4.17876 6.57979C5.66534 4.44648 10.0528 5.89371 10.0528 5.89371L10.5664 7.05368C10.5664 7.05368 8.57067 5.97287 7.58165 7.56536Z" fill="#FCD535"></path><path d="M3.96146 10.8561C3.95672 10.8561 3.95204 10.8551 3.94789 10.8529C3.94373 10.8508 3.94023 10.8477 3.93774 10.8439L1.60269 7.95206C1.59629 7.94413 1.59596 7.93329 1.60189 7.92506C1.60782 7.91682 1.61864 7.91294 1.62889 7.91557C1.63226 7.91643 1.9729 7.99887 2.4522 7.87466C3.25433 7.66678 3.82225 7.04982 4.15741 6.56886C4.49986 6.07741 5.02438 5.7353 5.71641 5.55201C6.2681 5.40586 6.92698 5.35988 7.67462 5.41535C8.94583 5.50966 10.0495 5.86991 10.0605 5.87354C10.0671 5.87575 10.0724 5.88047 10.0751 5.88656L10.5887 7.04654C10.5928 7.05575 10.5901 7.06638 10.5822 7.07296C10.5783 7.07615 10.5734 7.07812 10.5682 7.0786C10.5631 7.07908 10.5579 7.07803 10.5534 7.07561C10.5484 7.07294 10.0505 6.8065 9.43989 6.73703C8.62511 6.64421 8.00697 6.92753 7.6025 7.57882C6.75571 8.9423 5.83234 9.7576 5.20684 10.2015C4.54556 10.6707 4.03527 10.8561 3.96146 10.8561ZM1.68185 7.97303L3.97143 10.8086C4.04343 10.7943 4.51236 10.6393 5.1957 10.151C5.81244 9.7103 6.72324 8.90223 7.55963 7.55545C8.07733 6.72184 8.87192 6.62533 9.44733 6.69103C9.9416 6.74752 10.3629 6.93081 10.5163 7.00437L10.0336 5.91408C9.91837 5.87726 8.86892 5.55047 7.66976 5.46168C6.92812 5.40668 6.27532 5.45224 5.72943 5.5969C5.04952 5.77707 4.53459 6.11265 4.19896 6.5943C3.85855 7.08282 3.2809 7.70944 2.46227 7.92033C2.09032 8.01615 1.80491 7.99204 1.68185 7.97303Z" fill="black"></path><path d="M3.42129 8.30149C3.41471 8.30149 3.4084 8.29904 3.40375 8.29468C3.3991 8.29032 3.39648 8.2844 3.39648 8.27823C3.39648 8.27206 3.3991 8.26615 3.40375 8.26179C3.4084 8.25743 3.41471 8.25498 3.42129 8.25498C4.14897 8.25498 4.57704 7.81625 5.03026 7.35174C5.56988 6.7987 6.18146 6.17185 7.41637 6.16211C7.42987 6.16295 7.44128 6.17232 7.44141 6.18516C7.44144 6.18821 7.44082 6.19124 7.4396 6.19408C7.43838 6.19691 7.43657 6.19949 7.43429 6.20167C7.432 6.20385 7.42928 6.20559 7.42628 6.20678C7.42328 6.20797 7.42006 6.2086 7.4168 6.20862C6.2035 6.21821 5.59965 6.8371 5.06688 7.38313C4.60606 7.85542 4.17082 8.30149 3.42129 8.30149ZM4.08168 8.53367C3.95049 8.53367 3.83535 8.51636 3.74663 8.48071C3.74353 8.47958 3.7407 8.47787 3.73832 8.47569C3.73593 8.47351 3.73404 8.47091 3.73276 8.46803C3.73147 8.46515 3.73081 8.46206 3.73083 8.45894C3.73084 8.45582 3.73152 8.45274 3.73284 8.44987C3.73415 8.447 3.73606 8.44441 3.73846 8.44226C3.74087 8.4401 3.74371 8.43841 3.74682 8.4373C3.74993 8.43619 3.75325 8.43568 3.75657 8.4358C3.7599 8.43592 3.76316 8.43666 3.76618 8.43799C4.16157 8.5969 5.29818 8.36005 5.73558 7.69729C5.7373 7.6947 5.73954 7.69244 5.74218 7.69066C5.74483 7.68888 5.74782 7.6876 5.75099 7.6869C5.75417 7.6862 5.75745 7.68609 5.76067 7.68659C5.76388 7.68708 5.76696 7.68816 5.76973 7.68977C5.7725 7.69138 5.77491 7.69348 5.77681 7.69596C5.77871 7.69844 5.78007 7.70124 5.78082 7.70422C5.78156 7.70719 5.78168 7.71027 5.78115 7.71328C5.78063 7.7163 5.77947 7.71919 5.77776 7.72178C5.43665 8.23858 4.62323 8.53367 4.08168 8.53367Z" fill="black"></path><path d="M10.8574 7.02757L11.53 5.99107C11.53 5.99107 16.0796 5.0845 17.2613 7.37922C18.2039 9.20956 19.6098 9.03234 19.6098 9.03234L16.8064 11.7705C16.7933 11.8059 15.1402 10.7321 13.7515 7.9466C13.0506 6.54078 10.8574 7.02757 10.8574 7.02757Z" fill="#FCD535"></path><path d="M16.8048 11.7943C16.7509 11.7943 16.3102 11.4923 15.7499 10.9046C15.2225 10.3514 14.4437 9.39082 13.7284 7.95616C13.3714 7.23995 12.6125 7.03152 12.0388 6.98275C11.4142 6.9298 10.868 7.04871 10.8626 7.0499C10.8578 7.05095 10.8528 7.05067 10.8482 7.04907C10.8436 7.04748 10.8397 7.04465 10.8368 7.04094C10.8339 7.03723 10.8323 7.03281 10.8321 7.02823C10.8318 7.02365 10.8331 7.01912 10.8356 7.0152L11.5083 5.9787C11.5118 5.97323 11.5176 5.96937 11.5243 5.96802C11.5357 5.96574 12.6795 5.74145 13.9532 5.8011C14.7022 5.8362 15.3493 5.96116 15.8764 6.17257C16.5376 6.43772 17.0108 6.84021 17.2831 7.36885C17.5499 7.88709 18.0294 8.56829 18.7981 8.87045C19.2558 9.05036 19.6025 9.00943 19.6059 9.00901C19.611 9.00836 19.6162 9.00922 19.6208 9.01146C19.6254 9.01371 19.6291 9.01722 19.6314 9.02153C19.6337 9.02583 19.6346 9.03071 19.6338 9.03549C19.633 9.04026 19.6307 9.0447 19.6271 9.04818L16.8237 11.7863L16.8236 11.7862C16.8188 11.7909 16.8124 11.7938 16.8055 11.7943L16.8048 11.7943ZM11.7087 6.92266C11.8157 6.92266 11.9282 6.92666 12.0433 6.93645C12.8846 7.00792 13.4829 7.35371 13.7734 7.93644C14.4779 9.34947 15.2437 10.2995 15.7622 10.8476C16.3142 11.4312 16.7194 11.7075 16.7979 11.7444L19.5467 9.0596C19.4227 9.06357 19.1357 9.05357 18.7789 8.91333C17.9959 8.60557 17.509 7.91455 17.2384 7.38906C16.9716 6.87098 16.5069 6.47612 15.8574 6.21552C15.3358 6.00628 14.6947 5.8825 13.9517 5.84762C12.7491 5.7911 11.6626 5.98921 11.545 6.01153L10.9078 6.99355C11.0297 6.97108 11.3364 6.92266 11.7087 6.92266Z" fill="black"></path><path d="M17.4387 9.4089C16.9139 9.4089 15.8345 8.97162 15.5191 8.31849C15.5165 8.31289 15.5164 8.30657 15.5187 8.30089C15.5211 8.2952 15.5257 8.29061 15.5316 8.2881C15.5376 8.28559 15.5443 8.28536 15.5504 8.28746C15.5565 8.28956 15.5615 8.29382 15.5643 8.29932C15.8926 8.97899 17.0683 9.41934 17.5298 9.35683C17.5596 9.35267 17.5866 9.3382 17.6056 9.31627C17.6321 9.28599 17.6402 9.24726 17.6277 9.21003C17.6215 9.19156 17.6104 9.17483 17.5956 9.16139C17.5807 9.14794 17.5625 9.1382 17.5425 9.13305C16.9512 8.97764 16.6206 8.53599 16.2705 8.06838C15.817 7.46269 15.303 6.77617 14.1011 6.62046C14.0947 6.61953 14.0889 6.61626 14.085 6.61137C14.0811 6.60647 14.0794 6.60034 14.0803 6.5943C14.0812 6.58826 14.0846 6.58278 14.0897 6.57906C14.0949 6.57533 14.1014 6.57365 14.1079 6.57439C15.3312 6.73284 15.8518 7.42818 16.3111 8.04166C16.6559 8.50227 16.9817 8.93734 17.5559 9.08825C17.5838 9.09548 17.6093 9.10913 17.6301 9.12796C17.6509 9.14679 17.6663 9.1702 17.675 9.19605C17.6836 9.22146 17.6852 9.24847 17.6798 9.27463C17.6743 9.30078 17.662 9.32524 17.6439 9.34578C17.6171 9.37669 17.5789 9.39705 17.5369 9.40285C17.507 9.4069 17.474 9.4089 17.4387 9.4089Z" fill="black"></path><path d="M14.919 7.73352C14.9107 7.73352 14.9025 7.72952 14.8978 7.72233C14.4314 7.00066 13.6813 6.80697 13.3804 6.75718C13.3771 6.75671 13.374 6.75563 13.3712 6.75401C13.3684 6.75239 13.3659 6.75025 13.364 6.74774C13.3621 6.74522 13.3607 6.74236 13.36 6.73934C13.3593 6.73632 13.3592 6.7332 13.3598 6.73015C13.3603 6.7271 13.3615 6.72419 13.3633 6.72158C13.3651 6.71898 13.3675 6.71674 13.3702 6.71499C13.3729 6.71325 13.376 6.71203 13.3792 6.71141C13.3825 6.71079 13.3858 6.71078 13.389 6.71139C13.6966 6.76227 14.4634 6.96024 14.9403 7.69821C14.9425 7.70174 14.9438 7.70577 14.9438 7.70989C14.9439 7.71401 14.9428 7.71808 14.9406 7.72167C14.9385 7.72527 14.9353 7.72825 14.9316 7.73034C14.9278 7.73242 14.9234 7.73351 14.919 7.73352Z" fill="black"></path><path d="M10.9898 5.67326C10.9864 5.66123 10.6361 4.45379 9.93361 3.19609C9.28317 2.03172 8.18871 0.584705 6.66901 0.302782C5.64905 0.113701 5.07396 0.433441 4.7711 0.734993C4.58364 0.921655 4.45004 1.15039 4.36459 1.39317C4.18869 1.89299 3.82371 2.31757 3.34464 2.59201C3.0653 2.75202 2.851 2.98303 2.72635 3.27349C2.44578 3.92727 2.6716 4.88684 3.80856 5.55676C4.08161 5.71761 4.39288 5.84131 4.72736 5.93499V5.93497C5.8313 6.24415 7.18664 6.22592 8.24118 6.13552C9.72662 6.00814 10.9522 5.71417 10.9644 5.71119C10.9833 5.70663 10.9946 5.68982 10.9898 5.67326Z" fill="#FCD535"></path><path d="M6.95865 6.21578C6.2184 6.21578 5.41838 6.15282 4.71969 5.95713C4.36748 5.85852 4.05629 5.7304 3.79477 5.57634C2.64571 4.89928 2.41835 3.92748 2.70274 3.2647C2.8266 2.9761 3.04388 2.7366 3.33113 2.57203C3.80916 2.29822 4.16762 1.8769 4.34047 1.38575C4.43271 1.12367 4.57132 0.899328 4.75246 0.718923C5.05958 0.413091 5.64207 0.0887 6.67324 0.279804C8.20276 0.563588 9.30211 2.01637 9.95501 3.18516C10.6562 4.44056 11.0097 5.65493 11.0132 5.66705V5.66707C11.0152 5.67382 11.0157 5.68087 11.0147 5.6878C11.0137 5.69472 11.0112 5.7014 11.0074 5.70742C11.0034 5.7139 10.998 5.71954 10.9915 5.72404C10.9851 5.72853 10.9778 5.73178 10.97 5.73359C10.9577 5.73654 9.72539 6.03142 8.24288 6.15852C7.86503 6.19094 7.42364 6.21578 6.95865 6.21578ZM6.0878 0.269269C5.42944 0.269269 5.0248 0.515632 4.78858 0.750832C4.61243 0.926237 4.47752 1.14476 4.38758 1.40036C4.21106 1.90194 3.84506 2.33218 3.357 2.61175C3.07894 2.77107 2.86862 3.00285 2.74879 3.28207C2.47209 3.9269 2.69637 4.87419 3.82117 5.53697C4.07887 5.68877 4.38594 5.81515 4.7339 5.9126C5.86389 6.22903 7.26334 6.1958 8.23837 6.11221C9.71693 5.98544 10.9454 5.69149 10.9576 5.68854C10.9605 5.68794 10.963 5.68631 10.9646 5.684C10.965 5.68329 10.9653 5.6825 10.9655 5.68167C10.9656 5.68084 10.9656 5.68 10.9653 5.67919C10.9619 5.66709 10.6098 4.4577 9.91109 3.20674C9.26321 2.04698 8.17391 0.605637 6.66364 0.325458C6.45295 0.286409 6.26154 0.269269 6.0878 0.269269Z" fill="black"></path><path d="M8.70449 6.09481C8.70449 6.09481 5.75683 6.44855 4.22011 5.76224C2.62384 5.04917 2.52088 3.82817 2.67843 3.39977C2.79875 3.07254 3.02353 2.87277 3.31976 2.77788C4.1566 2.50949 5.56431 3.0772 6.80257 3.96213C7.40793 4.39471 7.82374 4.79218 8.10831 5.12383C8.61368 5.71316 8.70449 6.09481 8.70449 6.09481Z" fill="#FCD535"></path><path d="M7.00401 6.20721C6.07729 6.20721 4.96931 6.12163 4.21112 5.783C3.33355 5.39103 2.94331 4.85983 2.77049 4.48323C2.55941 4.02332 2.57724 3.60792 2.65666 3.39196C2.77448 3.07161 2.99544 2.85753 3.31343 2.75566C3.7143 2.62714 4.27024 2.6824 4.92118 2.91558C5.52443 3.13169 6.18077 3.4871 6.8193 3.94343C7.35086 4.32324 7.7916 4.71543 8.12934 5.10903C8.63256 5.69584 8.72664 6.07372 8.73041 6.08953C8.73115 6.09269 8.73118 6.09596 8.7305 6.09913C8.72983 6.10229 8.72845 6.1053 8.72647 6.10794C8.72449 6.11059 8.72195 6.11282 8.719 6.1145C8.71605 6.11617 8.71276 6.11725 8.70934 6.11767C8.69446 6.11946 7.94212 6.20721 7.00401 6.20721ZM3.79159 2.73436C3.62037 2.73436 3.46554 2.75606 3.32948 2.79969C3.02672 2.89667 2.81614 3.10106 2.70355 3.40714C2.58112 3.74012 2.68762 4.18503 2.81606 4.46486C2.98554 4.83409 3.36883 5.35523 4.23246 5.74102C5.66488 6.38078 8.36761 6.10835 8.67463 6.07474C8.64489 5.98118 8.51369 5.63151 8.09063 5.1382C7.75543 4.7475 7.31756 4.35797 6.78919 3.98041C6.15438 3.52676 5.5023 3.17357 4.90344 2.95902C4.48688 2.80981 4.11084 2.73436 3.79159 2.73436ZM9.40707 5.11943C9.4017 5.11943 9.39647 5.11779 9.39217 5.11476C9.38788 5.11173 9.38475 5.10748 9.38325 5.10264C9.06159 4.06148 8.30648 3.42705 7.72968 3.07817C7.2499 2.78799 6.44666 2.45246 5.75878 2.46072C5.75222 2.46075 5.74591 2.45837 5.7412 2.45408C5.7365 2.44979 5.73379 2.44394 5.73365 2.43778C5.73356 2.43161 5.7361 2.42566 5.74069 2.42124C5.74528 2.41682 5.75156 2.41429 5.75814 2.4142C5.76585 2.41411 5.77374 2.41406 5.78161 2.41406C6.77948 2.41406 8.84374 3.18897 9.43094 5.08968C9.43201 5.09315 9.43221 5.09681 9.43152 5.10036C9.43082 5.10391 9.42926 5.10727 9.42694 5.11015C9.42462 5.11304 9.42162 5.11538 9.41817 5.11699C9.41472 5.1186 9.41092 5.11944 9.40707 5.11943Z" fill="black"></path><path d="M8.69085 6.04606C7.34705 5.85114 6.84939 4.87353 6.21498 4.15127C4.06429 1.70285 2.82422 3.12712 2.82422 3.12712C2.82422 3.12712 3.00446 2.88557 3.30077 2.78478C3.62558 2.6743 4.08352 2.70728 4.4447 2.79664C5.19167 2.98142 6.12477 3.47684 6.80397 3.96224C7.40933 4.39485 8.42303 5.30269 8.69085 6.04606Z" fill="black"></path><path d="M8.69035 6.06871C8.68908 6.06871 8.68781 6.06861 8.68656 6.06843C7.58498 5.90863 7.05573 5.23901 6.54391 4.59146C6.42569 4.44187 6.31402 4.30058 6.1953 4.16546C5.46237 3.33106 4.76229 2.85899 4.11026 2.75831C4.01669 2.74652 3.92248 2.73975 3.8281 2.738C3.1952 2.74619 2.84637 3.13726 2.8429 3.14123C2.83884 3.14591 2.83301 3.14894 2.82662 3.14966C2.82023 3.15039 2.8138 3.14876 2.80867 3.14512C2.80354 3.14148 2.80012 3.13612 2.79913 3.13016C2.79813 3.1242 2.79965 3.11812 2.80335 3.11319C2.81089 3.10307 2.99153 2.86443 3.29178 2.76228C3.44937 2.70867 3.6349 2.68949 3.82157 2.69158C3.92161 2.69018 4.02158 2.69725 4.12026 2.71272C4.23838 2.72751 4.35094 2.74891 4.4505 2.77352C5.12999 2.94162 6.05949 3.40071 6.8185 3.94314C7.3498 4.32279 8.42968 5.24919 8.71385 6.03798C8.71511 6.04148 8.71547 6.04522 8.71489 6.04887C8.71431 6.05252 8.71281 6.056 8.71052 6.059C8.70822 6.062 8.70519 6.06445 8.70169 6.06614C8.69818 6.06783 8.69429 6.06871 8.69035 6.06871ZM4.70803 2.89629C5.19757 3.12307 5.70786 3.5373 6.23363 4.13587C6.35314 4.27195 6.46518 4.41368 6.5838 4.56374C7.0832 5.19559 7.59944 5.84869 8.65309 6.01619C8.52839 5.69734 8.25338 5.31331 7.85515 4.90259C7.53841 4.57592 7.13964 4.23107 6.78846 3.9801C6.1308 3.51014 5.34509 3.10328 4.70803 2.89629Z" fill="black"></path><path d="M10.6183 5.48855C10.6306 5.49151 11.8561 5.78548 13.3415 5.91288C14.3961 6.00328 15.7514 6.02151 16.8554 5.71233C17.1898 5.61865 17.5011 5.49497 17.7742 5.33413C18.9111 4.6642 19.1369 3.70464 18.8564 3.05085C18.7317 2.76039 18.5174 2.52938 18.2381 2.36937C17.759 2.09494 17.394 1.67035 17.2181 1.17054C17.1327 0.927754 16.9991 0.699019 16.8116 0.512357C16.5088 0.210805 15.9337 -0.108958 14.9137 0.0801231C13.394 0.36207 12.2995 1.80908 11.6491 2.97345C10.9466 4.23115 10.5964 5.4386 10.5929 5.45062C10.5881 5.46716 10.5994 5.48399 10.6183 5.48855Z" fill="#FCD535"></path><path d="M14.6229 5.99311C14.1579 5.99311 13.7165 5.96829 13.3387 5.93589C11.8561 5.80872 10.6238 5.51389 10.6115 5.51096L10.6115 5.51094C10.6037 5.50913 10.5964 5.50588 10.59 5.50138C10.5836 5.49689 10.5782 5.49123 10.5741 5.48475C10.5704 5.47873 10.5679 5.47207 10.5669 5.46515C10.5659 5.45822 10.5664 5.45119 10.5684 5.44445C10.5719 5.43233 10.9254 4.21791 11.6266 2.96254C12.2794 1.79372 13.3788 0.340918 14.9083 0.0571572C15.9394 -0.13397 16.522 0.190444 16.8291 0.496252C17.0103 0.676658 17.1489 0.900997 17.2411 1.16308C17.4139 1.65423 17.7724 2.07553 18.2504 2.34938C18.5376 2.5139 18.7549 2.75343 18.8788 3.04203C19.1632 3.70479 18.9359 4.67659 17.7868 5.35367C17.5253 5.50773 17.2141 5.63588 16.8619 5.73451C16.1632 5.93015 15.3631 5.99311 14.6229 5.99311ZM10.624 5.46591C10.638 5.46929 11.8656 5.76286 13.3432 5.88957C14.3183 5.97322 15.7178 6.00636 16.8477 5.6899C17.1955 5.59253 17.5026 5.46615 17.7604 5.3143C18.8852 4.65154 19.1095 3.70423 18.8328 3.0594C18.7129 2.78015 18.5026 2.54837 18.2246 2.38911C17.7365 2.10951 17.3705 1.67927 17.194 1.17769C17.1041 0.922114 16.9691 0.703567 16.793 0.528161C16.4944 0.230865 15.9268 -0.0841999 14.918 0.102811C13.4077 0.382967 12.3184 1.82431 11.6705 2.98409C10.9718 4.23498 10.6197 5.44445 10.6163 5.45654C10.616 5.45734 10.616 5.45818 10.6161 5.45901C10.6162 5.45983 10.6165 5.46062 10.617 5.46133C10.6186 5.46364 10.6211 5.46529 10.624 5.46591Z" fill="black"></path><path d="M18.6874 4.44259C18.4552 4.83331 18.0451 5.23334 17.3594 5.53963C15.8229 6.22595 12.875 5.87221 12.875 5.87221C12.875 5.87221 13.0035 5.33195 13.8069 4.544H13.8071V4.54376C13.8074 4.54353 13.8074 4.54353 13.8078 4.5433C14.0592 4.29654 14.3767 4.02559 14.7772 3.73953C16.4533 2.54179 18.4406 1.92454 18.9013 3.17717C18.9911 3.4216 18.9961 3.92396 18.6874 4.44259Z" fill="#FCD535"></path><path d="M14.5783 5.98446C13.6401 5.98446 12.8877 5.89672 12.8729 5.89492C12.8695 5.89451 12.8662 5.89344 12.8632 5.89177C12.8603 5.89009 12.8577 5.88786 12.8557 5.88521C12.8537 5.88257 12.8524 5.87956 12.8517 5.87638C12.851 5.87321 12.8511 5.86994 12.8518 5.86678C12.8571 5.84446 12.991 5.31119 13.79 4.52759C13.7905 4.5271 13.791 4.52664 13.7915 4.52619C13.7917 4.52596 13.792 4.52573 13.7923 4.52554C14.069 4.25401 14.3956 3.98325 14.7631 3.7207C16.112 2.75683 17.4399 2.29702 18.2286 2.52059C18.5684 2.61694 18.8029 2.83514 18.9258 3.16923C19.0036 3.38096 19.0457 3.88971 18.7101 4.45358V4.45356C18.4371 4.91303 17.9865 5.28538 17.3711 5.56028C16.6131 5.89885 15.505 5.98446 14.5783 5.98446ZM12.9075 5.85199C13.2143 5.88553 15.9175 6.15803 17.3498 5.5183C17.9557 5.24761 18.3989 4.88177 18.6668 4.43093V4.43091C18.9938 3.88139 18.954 3.3888 18.8789 3.18437C18.7615 2.86524 18.5379 2.65688 18.2143 2.56513C17.8219 2.45389 17.2811 2.51661 16.6504 2.74667C16.0594 2.96222 15.4172 3.31182 14.7933 3.75768C14.4272 4.01921 14.102 4.28881 13.8269 4.55901C13.8262 4.55966 13.8255 4.56028 13.8247 4.56085L13.8244 4.56113C13.4135 4.96445 13.1841 5.30061 13.0641 5.51167C12.9661 5.68387 12.923 5.80299 12.9075 5.85199ZM12.1752 4.89677C12.1714 4.89677 12.1676 4.89594 12.1641 4.89433C12.1607 4.89272 12.1577 4.89038 12.1554 4.88749C12.1531 4.88461 12.1515 4.88126 12.1508 4.87771C12.1501 4.87417 12.1503 4.87052 12.1514 4.86705C12.7385 2.96647 14.8027 2.19141 15.8007 2.19141C15.8086 2.19141 15.8164 2.19145 15.8241 2.19155C15.8307 2.19159 15.837 2.19407 15.8416 2.19846C15.8463 2.20285 15.8488 2.20879 15.8488 2.21495C15.8487 2.22112 15.8461 2.22702 15.8414 2.23136C15.8367 2.23569 15.8304 2.2381 15.8238 2.23806H15.8235C15.8149 2.23795 15.8063 2.23789 15.7977 2.2379C15.1163 2.2379 14.3264 2.56894 13.8526 2.85551C13.2758 3.20442 12.5207 3.83883 12.199 4.88C12.1975 4.88484 12.1944 4.88909 12.1901 4.89211C12.1858 4.89514 12.1806 4.89677 12.1752 4.89677Z" fill="black"></path><path d="M18.6882 4.44259C18.5661 4.5119 18.4225 4.564 18.2587 4.57376C17.5308 4.61702 17.3234 3.77093 16.5166 3.55882C15.3428 3.2502 13.8498 4.50818 13.8086 4.5433C14.0599 4.29654 14.3775 4.02559 14.7779 3.73953C16.4541 2.54179 18.4413 1.92454 18.9021 3.17717C18.9919 3.4216 18.9968 3.92396 18.6882 4.44259Z" fill="black"></path><path d="M18.2051 4.59821C17.8363 4.59821 17.599 4.37013 17.3483 4.1293C17.1174 3.90736 16.8786 3.67786 16.5094 3.58081C15.9096 3.42317 15.2214 3.69016 14.7497 3.94197C14.2212 4.22405 13.8407 4.54649 13.8248 4.5601C13.8201 4.56419 13.8138 4.56639 13.8073 4.56623C13.8009 4.56607 13.7948 4.56355 13.7903 4.55922C13.7857 4.55489 13.7832 4.54908 13.7832 4.54303C13.7832 4.53698 13.7857 4.53116 13.7902 4.52681C14.0672 4.25487 14.3943 3.98362 14.7624 3.72063C16.1113 2.75676 17.4392 2.29694 18.2279 2.52051C18.5676 2.61687 18.8022 2.83506 18.925 3.16915C19.0028 3.38089 19.0449 3.88964 18.7094 4.45351C18.7073 4.45703 18.7043 4.45998 18.7006 4.46207C18.5593 4.54226 18.4111 4.58754 18.2599 4.59656C18.2413 4.59766 18.223 4.59821 18.2051 4.59821ZM16.119 3.4858C16.2607 3.4858 16.3954 3.50252 16.5228 3.53601C16.9048 3.63641 17.1593 3.88101 17.3838 4.09681C17.6495 4.35211 17.879 4.57298 18.2567 4.55014C18.3978 4.54172 18.5366 4.49977 18.6692 4.42546C18.9928 3.8781 18.953 3.38807 18.8781 3.18432C18.7607 2.86518 18.5371 2.65682 18.2135 2.56507C17.8211 2.45379 17.2803 2.51656 16.6496 2.74662C16.0586 2.96216 15.4164 3.31177 14.7925 3.75763C14.576 3.91229 14.3738 4.06979 14.1878 4.22856C14.3365 4.12691 14.5197 4.01118 14.7251 3.90155C15.2434 3.62485 15.7104 3.4858 16.119 3.4858Z" fill="black"></path><path d="M12.0383 5.22486C11.3346 4.90112 10.7539 4.98415 10.7539 4.98415C10.7539 4.98415 10.1809 4.89136 9.45974 5.31278C8.75366 5.72538 8.70508 6.09398 8.70508 6.09398C8.70508 6.09398 9.13044 6.0451 9.60188 6.2973C10.1083 6.56827 10.4446 6.99587 10.4446 6.99587C10.5236 7.03683 10.6129 7.05709 10.7031 7.05453C10.7933 7.05197 10.8811 7.02669 10.9573 6.98134C10.9573 6.98134 11.2752 6.61036 11.8323 6.30979C12.5408 5.92749 12.8196 5.89476 12.8196 5.89476C12.9099 5.84102 12.565 5.46713 12.0383 5.22486Z" fill="#FCD535"></path><path d="M10.6873 7.07958C10.5996 7.07958 10.5117 7.05907 10.432 7.01779C10.4289 7.01618 10.4262 7.01395 10.4241 7.01125C10.4207 7.007 10.0848 6.58432 9.58901 6.31903C9.13002 6.0735 8.71173 6.1182 8.70751 6.1186C8.70377 6.11903 8.69997 6.11865 8.69641 6.1175C8.69285 6.11635 8.68961 6.11445 8.68695 6.11195C8.68428 6.10945 8.68226 6.10642 8.68103 6.10307C8.67981 6.09973 8.67941 6.09617 8.67987 6.09267C8.68191 6.07718 8.73803 5.70832 9.44603 5.2946C10.1441 4.88669 10.6977 4.95397 10.7537 4.9622C10.8073 4.95567 11.3768 4.8965 12.0487 5.20557C12.4875 5.40742 12.8502 5.73092 12.858 5.86419C12.8598 5.89484 12.8427 5.90979 12.8323 5.91598C12.8292 5.91783 12.8257 5.91901 12.8221 5.91942C12.8194 5.91977 12.5373 5.95745 11.844 6.33152C11.2979 6.62621 10.9792 6.99381 10.9761 6.99746C10.9744 6.99945 10.9723 7.00116 10.97 7.00253C10.8855 7.05286 10.7874 7.07959 10.6873 7.07958ZM10.4606 6.97941C10.5348 7.0169 10.6182 7.03532 10.7024 7.03283C10.7866 7.03033 10.8686 7.007 10.9401 6.9652C10.9726 6.92844 11.2916 6.57595 11.8193 6.29121C12.4666 5.94191 12.7558 5.88282 12.8076 5.87447C12.8085 5.87197 12.8088 5.86933 12.8085 5.86672C12.8031 5.77504 12.4946 5.46244 12.0268 5.24729C11.338 4.93046 10.7629 5.00784 10.7572 5.00867C10.7545 5.00907 10.7518 5.00904 10.7492 5.0086C10.7436 5.0077 10.1761 4.92281 9.47233 5.33404C8.89862 5.66929 8.76497 5.97652 8.73639 6.06973C8.84856 6.0635 9.21244 6.06401 9.61364 6.27863C10.092 6.53455 10.4239 6.93406 10.4606 6.97941Z" fill="black"></path></g><defs><clipPath id="clip0_173_3294"><rect width="21.25" height="20" fill="white"></rect></clipPath></defs></svg>