<svg width="1.3em" height="1.3em" viewBox="0 0 21 21" fill="none" xmlns="http://www.w3.org/2000/svg">
                  <path
                    d="M16.3334 9.45833H14.6667C12.65 9.45833 11.5417 8.35 11.5417 6.33333V4.66666C11.5417 2.65 12.65 1.54166 14.6667 1.54166H16.3334C18.35 1.54166 19.4584 2.65 19.4584 4.66666V6.33333C19.4584 8.35 18.35 9.45833 16.3334 9.45833ZM14.6667 2.79166C13.35 2.79166 12.7917 3.35 12.7917 4.66666V6.33333C12.7917 7.65 13.35 8.20833 14.6667 8.20833H16.3334C17.65 8.20833 18.2084 7.65 18.2084 6.33333V4.66666C18.2084 3.35 17.65 2.79166 16.3334 2.79166H14.6667ZM6.33335 19.4583H4.66669C2.65002 19.4583 1.54169 18.35 1.54169 16.3333V14.6667C1.54169 12.65 2.65002 11.5417 4.66669 11.5417H6.33335C8.35002 11.5417 9.45835 12.65 9.45835 14.6667V16.3333C9.45835 18.35 8.35002 19.4583 6.33335 19.4583ZM4.66669 12.7917C3.35002 12.7917 2.79169 13.35 2.79169 14.6667V16.3333C2.79169 17.65 3.35002 18.2083 4.66669 18.2083H6.33335C7.65002 18.2083 8.20835 17.65 8.20835 16.3333V14.6667C8.20835 13.35 7.65002 12.7917 6.33335 12.7917H4.66669Z"
                    fill="#D4D4D5"></path>
                  <path
                    d="M5.50002 9.45833C3.31669 9.45833 1.54169 7.68333 1.54169 5.5C1.54169 3.31666 3.31669 1.54166 5.50002 1.54166C7.68335 1.54166 9.45835 3.31666 9.45835 5.5C9.45835 7.68333 7.68335 9.45833 5.50002 9.45833ZM5.50002 2.79166C4.00835 2.79166 2.79169 4.00833 2.79169 5.5C2.79169 6.99166 4.00835 8.20833 5.50002 8.20833C6.99169 8.20833 8.20835 6.99166 8.20835 5.5C8.20835 4.00833 6.99169 2.79166 5.50002 2.79166ZM15.5 19.4583C13.3167 19.4583 11.5417 17.6833 11.5417 15.5C11.5417 13.3167 13.3167 11.5417 15.5 11.5417C17.6834 11.5417 19.4584 13.3167 19.4584 15.5C19.4584 17.6833 17.6834 19.4583 15.5 19.4583ZM15.5 12.7917C14.0084 12.7917 12.7917 14.0083 12.7917 15.5C12.7917 16.9917 14.0084 18.2083 15.5 18.2083C16.9917 18.2083 18.2084 16.9917 18.2084 15.5C18.2084 14.0083 16.9917 12.7917 15.5 12.7917Z"
                    fill="#07D2FB"></path>
                </svg>
